<?xml version="1.0" encoding="utf-8"?>
<svg version="1.1" xmlns:xlink="http://www.w3.org/1999/xlink" width="38px" height="38px" xmlns="http://www.w3.org/2000/svg">
  <g transform="matrix(1 0 0 1 -807 -330 )">
    <path d="M 826 330  C 836.64 330  845 338.36  845 349  C 845 359.64  836.64 368  826 368  C 815.36 368  807 359.64  807 349  C 807 338.36  815.36 330  826 330  Z " fill-rule="nonzero" fill="#fff6f6" stroke="none" />
    <path d="M 826 330.5  C 836.36 330.5  844.5 338.64  844.5 349  C 844.5 359.36  836.36 367.5  826 367.5  C 815.64 367.5  807.5 359.36  807.5 349  C 807.5 338.64  815.64 330.5  826 330.5  Z " stroke-width="1" stroke="#000000" fill="none" />
  </g>
</svg>