<?xml version="1.0" encoding="utf-8"?>
<svg version="1.1" xmlns:xlink="http://www.w3.org/1999/xlink" width="38px" height="38px" xmlns="http://www.w3.org/2000/svg">
  <g transform="matrix(1 0 0 1 -750 -319 )">
    <path d="M 769 319  C 779.64 319  788 327.36  788 338  C 788 348.64  779.64 357  769 357  C 758.36 357  750 348.64  750 338  C 750 327.36  758.36 319  769 319  Z " fill-rule="nonzero" fill="#000000" stroke="none" />
    <path d="M 769 319.5  C 779.36 319.5  787.5 327.64  787.5 338  C 787.5 348.36  779.36 356.5  769 356.5  C 758.64 356.5  750.5 348.36  750.5 338  C 750.5 327.64  758.64 319.5  769 319.5  Z " stroke-width="1" stroke="#797979" fill="none" />
  </g>
</svg>