<?xml version="1.0" encoding="utf-8"?>
<svg version="1.1" xmlns:xlink="http://www.w3.org/1999/xlink" width="38px" height="38px" xmlns="http://www.w3.org/2000/svg">
  <g transform="matrix(1 0 0 1 -750 -380 )">
    <path d="M 769 380  C 779.64 380  788 388.36  788 399  C 788 409.64  779.64 418  769 418  C 758.36 418  750 409.64  750 399  C 750 388.36  758.36 380  769 380  Z " fill-rule="nonzero" fill="#ffffff" stroke="none" />
    <path d="M 769 380.5  C 779.36 380.5  787.5 388.64  787.5 399  C 787.5 409.36  779.36 417.5  769 417.5  C 758.64 417.5  750.5 409.36  750.5 399  C 750.5 388.64  758.64 380.5  769 380.5  Z " stroke-width="1" stroke="#797979" fill="none" />
  </g>
</svg>