<?xml version="1.0" encoding="utf-8"?>
<svg version="1.1" xmlns:xlink="http://www.w3.org/1999/xlink" width="38px" height="38px" xmlns="http://www.w3.org/2000/svg">
  <g transform="matrix(1 0 0 1 -793 -306 )">
    <path d="M 812 306  C 822.64 306  831 314.36  831 325  C 831 335.64  822.64 344  812 344  C 801.36 344  793 335.64  793 325  C 793 314.36  801.36 306  812 306  Z " fill-rule="nonzero" fill="#000000" stroke="none" />
    <path d="M 812 306.5  C 822.36 306.5  830.5 314.64  830.5 325  C 830.5 335.36  822.36 343.5  812 343.5  C 801.64 343.5  793.5 335.36  793.5 325  C 793.5 314.64  801.64 306.5  812 306.5  Z " stroke-width="1" stroke="#000000" fill="none" />
  </g>
</svg>