<?xml version="1.0" encoding="utf-8"?>
<svg version="1.1" xmlns:xlink="http://www.w3.org/1999/xlink" width="258px" height="258px" xmlns="http://www.w3.org/2000/svg">
  <g transform="matrix(1 0 0 1 -698 -493 )">
    <path d="M 827 493  C 899.24 493  956 549.76  956 622  C 956 694.24  899.24 751  827 751  C 754.76 751  698 694.24  698 622  C 698 549.76  754.76 493  827 493  Z " fill-rule="nonzero" fill="#000000" stroke="none" />
    <path d="M 827 493.5  C 898.96 493.5  955.5 550.04  955.5 622  C 955.5 693.96  898.96 750.5  827 750.5  C 755.04 750.5  698.5 693.96  698.5 622  C 698.5 550.04  755.04 493.5  827 493.5  Z " stroke-width="1" stroke="#797979" fill="none" />
  </g>
</svg>